<?xml version="1.0"?>
<svg xmlns="http://www.w3.org/2000/svg" height="512px" viewBox="0 0 128 128" width="512px" class=""><g><path d="m127.988 68.672a1.75 1.75 0 0 0 -1.75-1.75h-17.262a37.457 37.457 0 0 0 -37.415 37.415v6.4l-5.822 4.72v-42.781l6.62-5.366h7.714a37.458 37.458 0 0 0 37.415-37.41 1.75 1.75 0 0 0 -1.75-1.75h-8.338a37.451 37.451 0 0 0 -37.39 36.558l-4.272 3.462v-25.244a24.946 24.946 0 0 0 -.873-42.691 1.751 1.751 0 0 0 -1.753 0 24.946 24.946 0 0 0 -.874 42.691v25.245l-4.274-3.464a37.182 37.182 0 0 0 -11.577-26.216 20.637 20.637 0 0 0 -3.43-2.915 37.282 37.282 0 0 0 -12.94-6.222c-4.432-1.154-8.879-1.209-13.417-1.209h-4.362a1.75 1.75 0 0 0 -1.75 1.75 37.457 37.457 0 0 0 37.412 37.415h7.715l6.62 5.366v42.783l-5.823-4.72v-6.4a37.457 37.457 0 0 0 -37.412-37.417h-17.262a1.75 1.75 0 0 0 -1.75 1.75v7.236a37.457 37.457 0 0 0 37.412 37.416h16.645l8.193 6.641v6.285a1.75 1.75 0 0 0 3.5 0v-6.285l8.192-6.641q8.234 0 16.469 0c12.167-.019 24.221-6.015 31.016-16.239a38.093 38.093 0 0 0 6.572-21.176zm-20.588-37.027h6.541a33.958 33.958 0 0 1 -33.868 32.165h-3.4l6.527-5.289 7.811.7c.053 0 .106.007.159.007a1.75 1.75 0 0 0 .155-3.493l-4.222-.38 3.851-3.121c.02 0 .038.009.058.011l8.165.734c.053 0 .106.007.159.007a1.75 1.75 0 0 0 .154-3.486l-4.64-.417 4.35-3.528a1.75 1.75 0 0 0 -2.2-2.719l-4.759 3.857-.44-4.894a1.75 1.75 0 1 0 -3.486.313l.651 7.236-4.866 3.938-.472-5.245a1.75 1.75 0 0 0 -3.486.313l.682 7.587-7.112 5.765a33.959 33.959 0 0 1 33.688-30.061zm-61.153 14.81a1.76 1.76 0 0 0 -1.9 1.586l-.472 5.244-4.857-3.937.651-7.236a1.75 1.75 0 0 0 -3.486-.313l-.44 4.894-4.759-3.857a1.75 1.75 0 0 0 -2.2 2.719l4.347 3.523-4.64.417a1.75 1.75 0 0 0 .155 3.493c.052 0 .105 0 .159-.007l8.165-.734c.02 0 .039-.009.058-.011l3.851 3.121-4.223.38a1.75 1.75 0 0 0 .155 3.493c.052 0 .105 0 .159-.007l7.812-.7 6.518 5.287h-3.4a33.957 33.957 0 0 1 -33.867-32.165c5.6 0 11.136-.174 16.569 1.51a34.2 34.2 0 0 1 19.374 15.475 33.827 33.827 0 0 1 4.29 13.079l-7.116-5.768.682-7.586a1.751 1.751 0 0 0 -1.585-1.9zm6.669 61.445-9.552-7.743.838-9.314a1.75 1.75 0 1 0 -3.486-.313l-.628 6.97-6.507-5.27.8-8.892a1.75 1.75 0 0 0 -3.486-.313l-.59 6.551-6.242-5.06a1.75 1.75 0 0 0 -2.2 2.719l5.909 4.789-6.454.581a1.75 1.75 0 0 0 .155 3.493c.052 0 .105 0 .159-.007l9.821-.884a1.729 1.729 0 0 0 .2-.038l5.439 4.408-5.951.536a1.75 1.75 0 0 0 .155 3.493c.052 0 .105 0 .159-.007l9.54-.859 8.739 7.084h-12.334a33.954 33.954 0 0 1 -33.912-33.915v-5.487h15.512a33.954 33.954 0 0 1 33.915 33.915zm11.072-91.817a1.75 1.75 0 0 0 -1.75 1.75v5.227l-2.431-2.127a1.75 1.75 0 0 0 -2.3 2.634l4.736 4.144v10.925a21.441 21.441 0 0 1 1.745-34.836 21.441 21.441 0 0 1 1.75 34.835v-10.925l4.735-4.144a1.75 1.75 0 0 0 -2.3-2.634l-2.435 2.128v-5.227a1.75 1.75 0 0 0 -1.75-1.75zm60.5 59.825a33.67 33.67 0 0 1 -6.354 19.769l-.007.012a33.928 33.928 0 0 1 -27.554 14.134h-12.324l8.739-7.084 9.54.859c.053 0 .106.007.159.007a1.75 1.75 0 0 0 .155-3.493l-5.951-.536 5.439-4.408a1.729 1.729 0 0 0 .2.038l9.821.884c.053 0 .106.007.159.007a1.75 1.75 0 0 0 .155-3.493l-6.454-.581 5.909-4.789a1.75 1.75 0 0 0 -2.2-2.719l-6.242 5.059-.59-6.551a1.75 1.75 0 0 0 -3.486.313l.8 8.892-6.514 5.272-.627-6.973a1.75 1.75 0 1 0 -3.486.313l.838 9.314-9.552 7.746v-3.565a33.954 33.954 0 0 1 33.915-33.915h15.513z" data-original="#000000" class="active-path" data-old_color="#000000" fill="#F9CE1B"/></g> </svg>
